<svg width="96" height="121" viewBox="0 0 96 121" fill="none" xmlns="http://www.w3.org/2000/svg">
<path id="Vector" d="M48 0.810913C41.9664 0.810913 37.7247 5.09839 35.5969 10.4109H24H19.2H0V120.811H96V10.4109H76.8H72H60.4031C58.2753 5.09839 54.0336 0.810913 48 0.810913ZM48 10.4109C50.6618 10.4109 52.8 12.5491 52.8 15.2109V20.0109H57.6H67.2V29.6109H28.8V20.0109H43.2V15.2109C43.2 12.5491 45.3382 10.4109 48 10.4109ZM9.6 20.0109H19.2V39.2109H76.8V20.0109H86.4V111.211H9.6V20.0109ZM43.2 53.6109V64.5047L33.7688 59.0578L28.9688 67.364L38.4094 72.8109L28.9688 78.2578L33.7688 86.564L43.2 81.1172V92.0109H52.8V81.1172L62.2313 86.564L67.0312 78.2578L57.5906 72.8109L67.0312 67.364L62.2313 59.0578L52.8 64.5047V53.6109H43.2Z" fill="#311300"/>
</svg>
